<?xml version="1.0" encoding="UTF-8" standalone="no"?>
<!-- Created with Inkscape (http://www.inkscape.org/) -->

<svg
   xmlns:dc="http://purl.org/dc/elements/1.1/"
   xmlns:cc="http://creativecommons.org/ns#"
   xmlns:rdf="http://www.w3.org/1999/02/22-rdf-syntax-ns#"
   xmlns:svg="http://www.w3.org/2000/svg"
   xmlns="http://www.w3.org/2000/svg"
   xmlns:sodipodi="http://sodipodi.sourceforge.net/DTD/sodipodi-0.dtd"
   xmlns:inkscape="http://www.inkscape.org/namespaces/inkscape"
   width="600"
   height="170"
   viewBox="0 0 158.75 44.979168"
   version="1.1"
   id="svg1003"
   inkscape:version="0.92.5 (2060ec1f9f, 2020-04-08)"
   sodipodi:docname="סלקום TV חדש.svg">
  <defs
     id="defs997" />
  <sodipodi:namedview
     id="base"
     pagecolor="#ffffff"
     bordercolor="#666666"
     borderopacity="1.0"
     inkscape:pageopacity="0.0"
     inkscape:pageshadow="2"
     inkscape:zoom="0.24748737"
     inkscape:cx="1556.1828"
     inkscape:cy="176.62524"
     inkscape:document-units="mm"
     inkscape:current-layer="layer1"
     showgrid="false"
     units="px"
     inkscape:window-width="1366"
     inkscape:window-height="705"
     inkscape:window-x="-8"
     inkscape:window-y="-8"
     inkscape:window-maximized="1" />
  <metadata
     id="metadata1000">
    <rdf:RDF>
      <cc:Work
         rdf:about="">
        <dc:format>image/svg+xml</dc:format>
        <dc:type
           rdf:resource="http://purl.org/dc/dcmitype/StillImage" />
        <dc:title></dc:title>
      </cc:Work>
    </rdf:RDF>
  </metadata>
  <g
     inkscape:label="Layer 1"
     inkscape:groupmode="layer"
     id="layer1"
     transform="translate(0,-252.02082)">
    <g
       id="g136"
       style="font-style:normal;font-variant:normal;font-weight:normal;font-stretch:normal;font-size:92.58222198px;line-height:1.25;font-family:NarkissTamBold;-inkscape-font-specification:NarkissTamBold;letter-spacing:0px;word-spacing:0px;fill:#FFFFFF;fill-opacity:1;stroke:none;stroke-width:6.94366693"
       aria-label="סלקום"
       transform="matrix(0.34589515,0,0,0.34589515,-259.85881,111.3051)">
      <path
         id="path126"
         style="font-style:normal;font-variant:normal;font-weight:bold;font-stretch:normal;font-family:RAG-Sans-65;-inkscape-font-specification:'RAG-Sans-65 Bold';letter-spacing:-1.20000005px;fill:#FFFFFF;fill-opacity:1;stroke-width:6.94366693"
         d="m 1042.3553,511.25863 q -10.1841,0 -16.2945,-6.29559 -6.0178,-6.38817 -6.0178,-16.57222 0,-6.66592 3.0552,-13.23925 h -5.092 v -12.4986 h 23.3307 q 12.7763,0 18.4238,5.92526 5.6476,5.83268 5.6476,17.77578 0,11.20245 -6.2956,18.05354 -6.2956,6.85108 -16.7574,6.85108 z m -7.4992,-15.46123 q 2.9627,3.51813 7.7769,3.51813 4.8143,0 7.4992,-3.42555 2.7775,-3.51812 2.7775,-9.16564 0,-5.64751 -2.4072,-8.61014 -2.3145,-2.96263 -8.5175,-2.96263 h -7.7769 q -2.4072,5.55493 -2.3146,10.55437 0,6.57334 2.9626,10.09146 z"
         inkscape:connector-curvature="0" />
      <path
         id="path128"
         style="font-style:normal;font-variant:normal;font-weight:bold;font-stretch:normal;font-family:RAG-Sans-65;-inkscape-font-specification:'RAG-Sans-65 Bold';letter-spacing:-1.20000005px;fill:#FFFFFF;fill-opacity:1;stroke-width:6.94366693"
         d="m 985.0303,510.51797 v -1.94422 l 12.96151,-33.42218 h -25.08978 v -22.96039 h 12.68376 v 10.46179 h 27.68211 v 6.29559 l -14.53543,41.56941 z"
         inkscape:connector-curvature="0" />
      <path
         id="path130"
         style="font-style:normal;font-variant:normal;font-weight:bold;font-stretch:normal;font-family:RAG-Sans-65;-inkscape-font-specification:'RAG-Sans-65 Bold';letter-spacing:-1.20000005px;fill:#FFFFFF;fill-opacity:1;stroke-width:6.94366693"
         d="m 944.3412,509.40699 -0.0926,-2.03681 10.55438,-32.21861 H 923.9731 v -12.4986 h 44.71721 v 5.64751 l -11.20245,41.10651 z m -18.42387,14.35024 v -39.62519 h 12.59119 v 39.62519 z"
         inkscape:connector-curvature="0" />
      <path
         id="path132"
         style="font-style:normal;font-variant:normal;font-weight:bold;font-stretch:normal;font-family:RAG-Sans-65;-inkscape-font-specification:'RAG-Sans-65 Bold';letter-spacing:-1.20000005px;fill:#FFFFFF;fill-opacity:1;stroke-width:6.94366693"
         d="m 903.22533,510.51797 v -35.3664 h -6.94366 v -12.4986 h 19.53485 v 47.865 z"
         inkscape:connector-curvature="0" />
      <path
         id="path134"
         style="font-style:normal;font-variant:normal;font-weight:bold;font-stretch:normal;font-family:RAG-Sans-65;-inkscape-font-specification:'RAG-Sans-65 Bold';letter-spacing:-1.20000005px;fill:#FFFFFF;fill-opacity:1;stroke-width:6.94366693"
         d="m 847.55959,510.51797 v -47.865 h 24.81204 q 10.09146,0 14.16508,4.07361 4.07362,3.98104 4.07362,14.16508 v 29.62631 z m 12.4986,-12.03568 h 18.05354 v -18.14612 q 0,-3.05521 -1.38874,-4.35136 -1.38873,-1.38874 -4.35136,-1.38874 h -12.31344 z"
         inkscape:connector-curvature="0" />
    </g>
    <g
       id="g140"
       style="fill:#9530ff;fill-opacity:1"
       transform="matrix(0.07895156,0,0,0.07895156,10.2066,240.06803)">
      <path
         d="m 1834.82,713.725 c 10.191,5.357 25.959,10.056 27.884,2.26 3.826,-14.565 -23.03,-62.433 -42.619,-101.49 -16.556,-33.341 -31.874,-61.589 -58.9,-110.094 -7.507,-13.723 -26.028,-46.565 -35.047,-64.124 -8.161,-15.663 -12.326,-26.971 -14.461,-31.62 -4.574,-9.842 -3.921,-16.401 0.554,-25.869 4.579,-9.313 16.66,-24.407 36.523,-42.674 3.547,-3.337 18.801,-16.386 34.568,-28.797 31.052,-24.322 74.773,-56.217 88.161,-71.813 9.952,-11.775 13.358,-22.876 6.026,-27.385 -9.434,-5.647 -26.023,-6.265 -74.395,0.257 -56.147,7.54 -114.709,20.863 -159.293,22.447 -11.188,0.429 -26.986,-0.274 -39.552,-9.019 -9.433,-6.524 -18.042,-22.103 -30.847,-45.203 -11.742,-21.225 -17.868,-28.66 -27.166,-28.196 -7.367,0.481 -14.975,2.823 -23.065,11.67 -9.089,9.934 -19.449,29.505 -35.8,59.008 -30.883,55.529 -53.982,59.367 -73.985,69.164 -5.163,2.616 -50.81,16.885 -84.311,28.091 -16.73,5.507 -29.949,10.897 -39.966,16.045 -8.779,4.574 -9.916,12.44 -4.854,18.296 0,0 1.377,4.405 29.64,19.175 6.062,3.113 13.942,7.093 21.794,11.463 15.044,8.45 29.465,19.778 29.365,37.646 -16.7138,78.65491 -56.4192,149.43316 -90.407,233.378 -11.567,28.383 -16.625,41.377 -16.042,47.972 0.484,3.217 4.784,5.282 9.293,3.596 16.631,-6.489 49.817,-33.102 68.613,-47.128 13.807,-10.156 65.894,-51.468 104.243,-78.439 27.335,-19.11 49.403,-31.83 71.815,-37.007 38.554,-8.884 75.841,7.073 147.755,55.234 64.621,43.39 153.271,101.848 174.476,113.156"
         id="path138"
         inkscape:connector-curvature="0"
         style="fill:#9530ff;fill-opacity:1"
         sodipodi:nodetypes="ccccccccccccccccccccccccccccccccc" />
    </g>
    <path
       inkscape:connector-curvature="0"
       style="font-style:normal;font-variant:normal;font-weight:normal;font-stretch:normal;font-size:28.44187927px;line-height:1.25;font-family:AharoniLightMF;-inkscape-font-specification:AharoniLightMF;font-variant-ligatures:normal;font-variant-position:normal;font-variant-caps:normal;font-variant-numeric:normal;font-variant-alternates:normal;font-feature-settings:normal;text-indent:0;text-align:start;text-decoration:none;text-decoration-line:none;text-decoration-style:solid;text-decoration-color:#000000;letter-spacing:0px;word-spacing:0px;text-transform:none;writing-mode:lr-tb;direction:ltr;text-orientation:mixed;dominant-baseline:auto;baseline-shift:baseline;text-anchor:start;white-space:normal;shape-padding:0;clip-rule:nonzero;display:inline;overflow:visible;visibility:visible;opacity:1;isolation:auto;mix-blend-mode:normal;color-interpolation:sRGB;color-interpolation-filters:linearRGB;solid-color:#000000;solid-opacity:1;vector-effect:none;fill:#FFFFFF;fill-opacity:1;stroke:none;stroke-width:0.24516019;stroke-linecap:butt;stroke-linejoin:miter;stroke-miterlimit:4;stroke-dasharray:none;stroke-dashoffset:0;stroke-opacity:1;color-rendering:auto;image-rendering:auto;shape-rendering:auto;text-rendering:auto;enable-background:accumulate"
       d="m -4.0528496e-6,270.40323 v 1.3908 H 5.3351569 v 16.02143 h 1.337266 v -16.02143 h 5.5848031 v -1.3908 z m 12.7256350528496,0 v 0.38502 l 0.0078,0.0237 6.494847,17.00353 h 1.176642 l 6.695075,-17.02721 v -0.38502 h -1.270913 l -6.051149,15.23185 -5.752606,-15.23185 z"
       id="text973" />
  </g>
</svg>